<?xml version="1.0" encoding="UTF-8"?>
<!DOCTYPE svg PUBLIC "-//W3C//DTD SVG 1.1//EN" "http://www.w3.org/Graphics/SVG/1.1/DTD/svg11.dtd">
<svg xmlns="http://www.w3.org/2000/svg" version="1.1" width="200px" height="200px" style="shape-rendering:geometricPrecision; text-rendering:geometricPrecision; image-rendering:optimizeQuality; fill-rule:evenodd; clip-rule:evenodd" xmlns:xlink="http://www.w3.org/1999/xlink">
<g><path style="opacity:1" fill="#fefefe" d="M -0.5,-0.5 C 66.1667,-0.5 132.833,-0.5 199.5,-0.5C 199.5,66.1667 199.5,132.833 199.5,199.5C 132.833,199.5 66.1667,199.5 -0.5,199.5C -0.5,132.833 -0.5,66.1667 -0.5,-0.5 Z"/></g>
<g><path style="opacity:1" fill="#5dc3c7" d="M 92.5,72.5 C 114.206,71.0404 124.373,81.0404 123,102.5C 115.811,119.674 103.644,124.507 86.5,117C 73.4414,105.645 72.1081,92.978 82.5,79C 85.7278,76.5603 89.0611,74.3936 92.5,72.5 Z"/></g>
<g><path style="opacity:1" fill="#0b3f69" d="M 94.5,74.5 C 113.374,73.8722 122.207,82.8722 121,101.5C 116.746,114.216 107.913,119.716 94.5,118C 79.637,112.067 74.8037,101.567 80,86.5C 83.5405,80.78 88.3739,76.78 94.5,74.5 Z"/></g>
<g><path style="opacity:1" fill="#50bec3" d="M 92.5,102.5 C 91.1779,102.33 90.0113,102.663 89,103.5C 88.0266,105.392 87.3599,107.392 87,109.5C 85.877,106.044 86.7104,103.21 89.5,101C 88.8333,100.333 88.1667,100.333 87.5,101C 85.4567,102.811 83.9567,104.978 83,107.5C 77.5234,97.7894 78.6901,88.9561 86.5,81C 100.67,72.8349 111.503,76.0015 119,90.5C 120.16,96.605 119.16,102.272 116,107.5C 115.588,103.993 113.755,101.66 110.5,100.5C 110.331,102.117 109.997,103.784 109.5,105.5C 108.5,105.167 107.833,104.5 107.5,103.5C 108.428,102.232 108.595,100.899 108,99.5C 104.216,97.6996 103.55,95.033 106,91.5C 109.069,81.5709 105.569,77.7376 95.5,80C 92.5715,83.2572 91.7382,87.0906 93,91.5C 95.2803,94.8701 94.7803,97.7034 91.5,100C 91.7432,100.902 92.0766,101.735 92.5,102.5 Z"/></g>
<g><path style="opacity:1" fill="#3790a2" d="M 92.5,102.5 C 93.1174,102.611 93.6174,102.944 94,103.5C 94.6667,105.5 94.6667,107.5 94,109.5C 93.5604,107.134 93.0604,104.801 92.5,102.5 Z"/></g>
<g><path style="opacity:1" fill="#68829e" d="M 102.5,127.5 C 101.5,127.5 100.5,127.5 99.5,127.5C 99.8174,130.572 99.4841,133.572 98.5,136.5C 97.513,133.232 97.1796,129.898 97.5,126.5C 99.4147,126.216 101.081,126.549 102.5,127.5 Z"/></g>
<g><path style="opacity:1" fill="#8da4b8" d="M 82.5,127.5 C 81.375,128.348 81.375,129.348 82.5,130.5C 81.8354,132.369 81.1687,134.369 80.5,136.5C 80.1667,136.333 79.8333,136.167 79.5,136C 80.1298,132.871 80.7964,129.704 81.5,126.5C 82.1067,126.624 82.44,126.957 82.5,127.5 Z"/></g>
<g><path style="opacity:1" fill="#778ea7" d="M 102.5,127.5 C 103.496,127.414 104.329,127.748 105,128.5C 105.814,130.902 105.647,133.235 104.5,135.5C 103.74,132.813 103.073,130.147 102.5,127.5 Z"/></g>
<g><path style="opacity:1" fill="#496a8b" d="M 87.5,126.5 C 88.7773,127.694 89.4439,129.36 89.5,131.5C 89.1667,133.167 88.8333,134.833 88.5,136.5C 87.513,133.232 87.1796,129.898 87.5,126.5 Z"/></g>
<g><path style="opacity:1" fill="#517492" d="M 91.5,130.5 C 93.1992,130.34 94.8659,130.506 96.5,131C 95.552,131.483 94.552,131.649 93.5,131.5C 93.7852,133.288 93.4519,134.955 92.5,136.5C 91.5344,134.604 91.2011,132.604 91.5,130.5 Z"/></g>
<g><path style="opacity:1" fill="#3d6083" d="M 82.5,127.5 C 84.4503,130 85.117,132.667 84.5,135.5C 83.438,133.978 82.7713,132.312 82.5,130.5C 81.375,129.348 81.375,128.348 82.5,127.5 Z"/></g>
<g><path style="opacity:1" fill="#718da6" d="M 110.5,131.5 C 111.189,130.226 112.023,130.226 113,131.5C 114.167,135.667 112.667,137.167 108.5,136C 109.448,135.517 110.448,135.351 111.5,135.5C 111.768,133.901 111.434,132.568 110.5,131.5 Z"/></g>
<g><path style="opacity:1" fill="#2b547a" d="M 114.5,131.5 C 115.058,133.593 116.391,135.093 118.5,136C 115.07,136.638 113.737,135.138 114.5,131.5 Z"/></g>
</svg>
